<?xml version="1.0" ?><svg data-name="Layer 1" id="Layer_1" viewBox="0 0 64 64" xmlns="http://www.w3.org/2000/svg"><defs><style>.cls-1{fill:#838eb1;}.cls-2{fill:#617093;}.cls-3{fill:#d7e6f9;}.cls-4{fill:#ccd3dd;}.cls-5{fill:#fed9a8;}.cls-6{fill:#eab275;}</style></defs><title/><path class="cls-1" d="M24,44v2A10,10,0,0,0,34,56h2l-2,4H46V56h0A10,10,0,0,0,56,46V44Z"/><path class="cls-2" d="M46.376,55.981A9.993,9.993,0,0,0,56,46V44H24v1.357c3.372,0,4.372.643,7.743.643s3.375-2,6.749-2,3.377,2,6.754,2,.976-1.481,4.343-1.232c.249.018,1.432.321.857,1.178-.139.208,2.554-.2,2.554.052s-1.02.5-1.02.749S53,47.575,53,47.826c0,.826-2.071.562-2.26,1.329-.2.793,1.369,2.255,1,2.96s-2.472.249-3.006.849-1.047,1.9-1.712,2.357Z"/><path class="cls-3" d="M46,13.538V38H23a3,3,0,0,0-3,3h0a3,3,0,0,0,3,3H56V17.292a4,4,0,0,0-2.514-3.714l-4.743-1.9A2,2,0,0,0,46,13.538Z"/><path class="cls-4" d="M52,44h4V17.292a4,4,0,0,0-2.514-3.714l-4.743-1.9a1.992,1.992,0,0,0-2.7,1.52v1.066a14.3,14.3,0,0,1,2.146.917c.413.284,1.725-.634,2.107-.273s.073,2.09.344,2.5c.326.488,2.361.428,2.361.885,0,3.028-2,3.028-2,6.057s2,3.031,2,6.062-2,3.033-2,6.066,2,3.034,2,6.067Z"/><path class="cls-5" d="M40,4h0a20.484,20.484,0,0,1,6,14.485V27A11,11,0,0,1,35,38H20a4,4,0,0,0-4,4V56a4,4,0,0,1-4,4H8a4,4,0,0,1-4-4v-19.3a8,8,0,0,1,6.6-7.877l11.145-1.977a4,4,0,0,0,3.061-5.022L22,14,15.414,25.172A3.645,3.645,0,0,1,11,27h0a3.646,3.646,0,0,1-2.434-4.111L12,4Z"/><path class="cls-6" d="M16.262,38.245a7.33,7.33,0,0,0-2.763.425c-.607.351.253,2.223-.1,2.83-.341.589-2.4.771-2.4,1.5,0,2.332,2,2.332,2,4.665S11,50,11,52.332s.818,3.3.818,5.633L10.62,60H12a4,4,0,0,0,4-4V42a3.972,3.972,0,0,1,1.38-3Z"/><path class="cls-6" d="M35.629,37.968A10.99,10.99,0,0,0,46,27V18.485A20.484,20.484,0,0,0,40,4H12l-.182,1,1.51.037c3.665,0,4.337.963,8,.963s2.968-.963,6.636-.963,4.259.414,7.887.952c1.277,1.277,3.381,1.216,4.269,2.754s-.249,3.97.214,5.7S43,17.679,43,19.485c0,1.418-2,1.418-2,2.835s2,1.42,2,2.84S41,26.58,41,28c0,1.179,1.765,2.623,1.421,3.687-.357,1.1-2.645,1.235-3.311,2.154s-1.242,2.332-2.165,3.011Z"/><path class="cls-2" d="M42,60h4V56.162a10.006,10.006,0,0,1-2.331.7A1.945,1.945,0,0,0,42,58.754Z"/><path d="M53.856,12.65l-4.742-1.9a2.945,2.945,0,0,0-3.295.737,21.337,21.337,0,0,0-5.112-8.2A1,1,0,0,0,40,3H12a1,1,0,0,0-.983.821L7.581,22.71a4.672,4.672,0,0,0,2.828,5.137A8.99,8.99,0,0,0,3,36.705V56a5.006,5.006,0,0,0,5,5h4a5.006,5.006,0,0,0,5-5V42a3,3,0,0,1,2.531-2.953A3.953,3.953,0,0,0,19,41a4,4,0,0,0,4,4v1A11.013,11.013,0,0,0,34,57h.382L33.1,59.553A1,1,0,0,0,34,61H46a1,1,0,0,0,1-1V56.955A11.015,11.015,0,0,0,57,46V17.292A4.975,4.975,0,0,0,53.856,12.65ZM15,42V56a3,3,0,0,1-3,3H8a3,3,0,0,1-3-3v-19.3a6.992,6.992,0,0,1,5.777-6.892l11.166-1.982a5,5,0,0,0,3.807-6.339l-2.809-7.83A1,1,0,0,0,22.094,13c-.032,0-.063,0-.094,0a1,1,0,0,0-.861.492L14.52,24.724a2.647,2.647,0,0,1-4.971-1.657L12.835,5H39.58A19.352,19.352,0,0,1,45,18.485V27A10.011,10.011,0,0,1,35,37H20A5.006,5.006,0,0,0,15,42Zm.283-15.018a4.388,4.388,0,0,0,.992-1.3l5.5-9.335,2.068,5.76a3,3,0,0,1-2.275,3.762ZM45,33.6V37h-3.4A12.079,12.079,0,0,0,45,33.6ZM21,41a2,2,0,0,1,2-2H46a1,1,0,0,0,1-1V13.538a1,1,0,0,1,1.372-.929l4.742,1.9A2.984,2.984,0,0,1,55,17.292V43H23A2,2,0,0,1,21,41Zm34,5a9.01,9.01,0,0,1-9,9,1,1,0,0,0-1,1v3H35.618L36.9,56.447A1,1,0,0,0,36,55H34a9.01,9.01,0,0,1-9-9V45H55Z"/></svg>